<svg width="56" height="44" viewBox="0 0 56 44" fill="none" xmlns="http://www.w3.org/2000/svg">
<path d="M52.5303 0.838806H17.1253C15.212 0.838806 13.6554 2.39532 13.6554 4.30873V7.39662L10.2999 4.04098L4.61509 9.72576L7.19547 12.3061L0 23.6084L7.3067 35.0293H4.54771C2.40625 35.0293 0.664126 36.7714 0.664126 38.9129V43.161H20.0241V38.9129C20.0241 36.7714 18.282 35.0293 16.1405 35.0293H11.2543L3.94473 23.6041L8.76566 16.0315C8.60356 18.3864 9.4183 20.7966 11.2146 22.5929L12.5944 23.9729L13.6554 22.9119V30.3067C13.6554 32.22 15.2119 33.7765 17.1253 33.7765H27.0493L26.4629 39.836H23.7186V43.1612H26.1411H43.5142H45.9367V39.836H43.1924L42.6061 33.7765H52.53C54.4433 33.7765 55.9999 32.22 55.9999 30.3067V4.30884C56.0001 2.39543 54.4435 0.838806 52.5303 0.838806ZM16.1404 38.3545C16.4483 38.3545 16.6987 38.605 16.6987 38.9129V39.8359H3.98935V38.9129C3.98935 38.605 4.23982 38.3545 4.54771 38.3545H16.1404ZM11.5937 10.2862C11.5634 10.313 11.5329 10.3392 11.5029 10.3666C11.4068 10.4541 11.3122 10.5433 11.2199 10.6357C11.2182 10.6374 11.2164 10.6389 11.2146 10.6407C11.2127 10.6424 11.2113 10.6442 11.2095 10.646C11.1174 10.7384 11.0282 10.8329 10.9408 10.9288C10.9131 10.9592 10.8863 10.9901 10.8592 11.0209C10.8206 11.0644 10.7811 11.1073 10.7435 11.1517L9.31778 9.72598L10.2999 8.74379L11.7256 10.1695C11.6808 10.2073 11.6375 10.2472 11.5937 10.2862ZM12.7274 19.1378C11.9019 17.6768 11.8506 15.8942 12.5718 14.3927C12.5768 14.3823 12.5819 14.3719 12.5869 14.3616C12.6122 14.3099 12.6384 14.2585 12.6655 14.2073C12.6728 14.1936 12.6803 14.1802 12.6877 14.1666C12.7139 14.1184 12.7407 14.0704 12.7687 14.023C12.778 14.0071 12.7876 13.9915 12.7971 13.9756C12.8241 13.9306 12.8517 13.8856 12.8802 13.8413C12.8918 13.8234 12.904 13.8057 12.9158 13.7878C12.9434 13.7461 12.9712 13.7044 13.0002 13.6634C13.015 13.6426 13.0305 13.622 13.0455 13.6015C13.0729 13.5638 13.1002 13.5263 13.1286 13.4893C13.1481 13.464 13.1686 13.4394 13.1886 13.4144C13.2141 13.3826 13.2391 13.3506 13.2655 13.3193C13.2932 13.2861 13.3223 13.254 13.3511 13.2215C13.3711 13.1989 13.3906 13.1758 13.411 13.1535C13.4614 13.0986 13.5129 13.0448 13.5658 12.9918C13.6248 12.9329 13.685 12.8759 13.7463 12.8203C13.7639 12.8042 13.782 12.789 13.7999 12.7732C13.8445 12.7337 13.8896 12.6945 13.9353 12.657C13.955 12.6407 13.9752 12.6251 13.9951 12.6091C14.0408 12.5727 14.0868 12.5367 14.1335 12.502C14.1524 12.4878 14.1716 12.474 14.1909 12.4601C14.2407 12.4242 14.291 12.389 14.3417 12.355C14.358 12.3441 14.3743 12.3332 14.3908 12.3224C14.4477 12.2854 14.5052 12.2495 14.5632 12.2148C14.574 12.2083 14.5849 12.2016 14.5957 12.1952C15.024 11.944 15.4811 11.7602 15.9517 11.6438C15.9593 11.6419 15.9668 11.6398 15.9744 11.6379C16.0483 11.6199 16.1227 11.6038 16.1973 11.5892C16.2035 11.588 16.2096 11.5866 16.216 11.5852C16.2921 11.5706 16.3684 11.5579 16.4451 11.5466C16.4496 11.546 16.4541 11.5452 16.4586 11.5446C16.536 11.5335 16.6139 11.5242 16.6916 11.5167C16.6955 11.5163 16.6993 11.5159 16.7031 11.5155C16.7807 11.5081 16.8583 11.5026 16.9361 11.4988C16.9409 11.4986 16.9455 11.4983 16.9503 11.4981C17.026 11.4946 17.1018 11.4928 17.1776 11.4926C17.1846 11.4926 17.1916 11.4925 17.1987 11.4925C17.4129 11.4928 17.6269 11.5064 17.8396 11.5332C17.8443 11.5337 17.8489 11.5346 17.8536 11.5352C17.9461 11.5471 18.0382 11.5623 18.1299 11.5792C18.1568 11.5843 18.1837 11.5896 18.2106 11.5951C18.2816 11.6094 18.3522 11.6256 18.4226 11.6429C18.4538 11.6507 18.4852 11.6578 18.5161 11.6661C18.5997 11.6884 18.6828 11.7129 18.7655 11.7394C18.8087 11.7534 18.8515 11.7688 18.8945 11.7839C18.9488 11.8029 19.003 11.8223 19.0568 11.8432C19.1036 11.8614 19.15 11.8809 19.1963 11.9005C19.2394 11.9187 19.2822 11.9378 19.325 11.9571C19.3725 11.9789 19.4201 12.0005 19.4669 12.0238C19.5118 12.046 19.5561 12.0699 19.6004 12.0934C19.6377 12.1132 19.6753 12.1321 19.712 12.1528L16.22 15.6448L12.7274 19.1378ZM29.8038 39.8359L30.3901 33.7764H39.2656L39.8518 39.8359H29.8038ZM52.6749 30.3066C52.6749 30.3863 52.6099 30.4513 52.5302 30.4513H42.2846H27.371H17.1253C17.0455 30.4513 16.9806 30.3864 16.9806 30.3066V27.2103H52.675V30.3066H52.6749ZM52.6749 23.885H16.9806V19.5866L24.5468 12.0205L23.1668 10.6406C22.3271 9.8009 21.3528 9.17637 20.3131 8.76457C20.3041 8.76107 20.295 8.7579 20.2859 8.7544C20.1679 8.70802 20.049 8.66406 19.9294 8.62326C19.8944 8.61134 19.8587 8.60073 19.8236 8.58924C19.7306 8.55884 19.6376 8.52909 19.5436 8.50196C19.4838 8.48468 19.4234 8.46937 19.3632 8.4534C19.2943 8.43524 19.2254 8.41654 19.1562 8.40013C19.0743 8.38056 18.9919 8.36349 18.9094 8.34621C18.862 8.33648 18.8148 8.32609 18.7673 8.31712C18.6668 8.29809 18.5659 8.28168 18.4646 8.26615C18.4352 8.26166 18.4061 8.25685 18.3767 8.2527C18.2615 8.23629 18.1459 8.22273 18.03 8.21124C18.0146 8.20971 17.9994 8.20807 17.9842 8.20654C17.858 8.19462 17.7314 8.18565 17.6045 8.17941C17.5996 8.1792 17.5948 8.17887 17.5898 8.17865C17.387 8.16902 17.1839 8.16388 16.9802 8.16891V4.30884C16.9802 4.229 17.0451 4.16414 17.1249 4.16414H52.5299C52.6097 4.16414 52.6746 4.22911 52.6746 4.30884V23.885H52.6749Z" fill="#222222"/>
</svg>
