<svg width="50" height="56" viewBox="0 0 50 56" fill="none" xmlns="http://www.w3.org/2000/svg">
<path d="M26.5782 10.7401H20.0728C19.1531 10.7401 18.4321 11.4924 18.4321 12.3807V35.7443C18.4321 36.6504 19.1667 37.385 20.0728 37.385C20.9788 37.385 21.7134 36.6504 21.7134 35.7443V27.2276C23.2359 27.2191 25.464 27.2078 26.5783 27.2078C28.7773 27.2078 30.8624 26.3568 32.4494 24.8115C34.0562 23.247 34.9412 21.1738 34.9412 18.974C34.9412 16.7741 34.0562 14.7009 32.4494 13.1363C30.8623 11.5912 28.7773 10.7401 26.5782 10.7401ZM26.5782 23.9266C25.4704 23.9266 23.2739 23.9376 21.7493 23.9462C21.7215 18.8364 21.7374 20.5547 21.7183 14.0214H26.5782C29.3328 14.0214 31.6598 16.2894 31.6598 18.974C31.6598 21.6586 29.3328 23.9266 26.5782 23.9266Z" fill="#222222"/>
<path d="M42.0147 7.04769C37.4701 2.50294 31.4273 0 24.9999 0C18.5725 0 12.5298 2.50294 7.98509 7.04769C-5.22686 20.2596 1.04831 43.0346 19.3124 47.4475V53.2656C19.3124 54.7734 20.539 56 22.0468 56H27.953C29.4608 56 30.6874 54.7734 30.6874 53.2656V47.4475C48.9691 43.0303 55.2175 20.2503 42.0147 7.04769ZM27.4061 52.7188H22.5936V48.0059C24.1894 48.1643 25.8104 48.1643 27.4061 48.0059V52.7188ZM28.7522 44.5062C16.1029 46.8145 4.21865 37.1677 4.21865 24.0625C4.21865 12.6037 13.541 3.28125 24.9999 3.28125C36.4588 3.28125 45.7811 12.6037 45.7811 24.0625C45.7811 34.094 38.6371 42.7024 28.7522 44.5062Z" fill="#222222"/>
</svg>
