<svg width="56" height="56" viewBox="0 0 56 56" fill="none" xmlns="http://www.w3.org/2000/svg">
<g clip-path="url(#clip0_18_73)">
<path d="M27.8906 51.0233C29.884 51.0233 31.5 49.4073 31.5 47.4139C31.5 45.4205 29.884 43.8046 27.8906 43.8046C25.8972 43.8046 24.2812 45.4205 24.2812 47.4139C24.2812 49.4073 25.8972 51.0233 27.8906 51.0233Z" fill="#222222"/>
<path d="M55.4127 16.9382C48.2235 9.22479 38.4884 4.97667 27.9996 4.97656C17.5116 4.97667 7.77652 9.22479 0.5872 16.9382C-0.236392 17.822 -0.18772 19.2062 0.696028 20.0299C1.57989 20.8535 2.96402 20.805 3.78773 19.9211C10.1402 13.1053 18.7388 9.35166 28.0004 9.35155C37.2611 9.35166 45.8597 13.1053 52.2122 19.9211C52.643 20.3833 53.2272 20.6172 53.8129 20.6172C54.347 20.6172 54.8824 20.4227 55.3039 20.0299C56.1877 19.2061 56.2364 17.822 55.4127 16.9382Z" fill="#222222"/>
<path d="M47.3808 25.9719C42.0666 20.6176 35.1837 17.669 28 17.6692C20.8146 17.6693 13.9316 20.618 8.61908 25.9721C7.76814 26.8298 7.7735 28.2148 8.63111 29.0657C9.48872 29.9166 10.8737 29.9113 11.7247 29.0537C16.2096 24.5336 21.9896 22.0443 28 22.0442C34.0088 22.044 39.7888 24.5334 44.2754 29.0539C44.703 29.4847 45.2654 29.7004 45.8281 29.7004C46.385 29.7004 46.9424 29.4889 47.3692 29.0655C48.2266 28.2144 48.2318 26.8294 47.3808 25.9719Z" fill="#222222"/>
<path d="M38.6261 35.0318C35.7802 32.2122 31.7008 30.4608 27.9797 30.4608C27.9793 30.4608 27.9785 30.4608 27.9781 30.4608H27.8204C27.8198 30.4608 27.8195 30.4608 27.8188 30.4608C24.0975 30.4608 20.0178 32.2123 17.172 35.0318C16.3139 35.8821 16.3074 37.2671 17.1577 38.1254C17.5855 38.5571 18.1485 38.7733 18.7117 38.7733C19.2681 38.7733 19.8247 38.5623 20.2511 38.1398C22.2771 36.1326 25.2474 34.8358 27.819 34.8358C27.8193 34.8358 27.8198 34.8358 27.8201 34.8358H27.9784C27.9788 34.8358 27.9789 34.8358 27.9794 34.8358C30.5507 34.8358 33.5212 36.1327 35.5469 38.1398C36.4051 38.99 37.7903 38.9839 38.6405 38.1254C39.4909 37.2672 39.4844 35.8821 38.6261 35.0318Z" fill="#222222"/>
</g>
<defs>
<clipPath id="clip0_18_73">
<rect width="56" height="56" fill="white"/>
</clipPath>
</defs>
</svg>
