<svg width="56" height="50" viewBox="0 0 56 50" fill="none" xmlns="http://www.w3.org/2000/svg">
<path d="M14.7656 6.95312H41.2344C42.139 6.95312 42.875 7.68911 42.875 8.59375C42.875 9.49839 42.139 10.2344 41.2344 10.2344H31.2812C28.5673 10.2344 26.3594 12.4423 26.3594 15.1562V16.7969H29.6406V15.1562C29.6406 14.2516 30.3766 13.5156 31.2812 13.5156H41.2344C43.9483 13.5156 46.1562 11.3077 46.1562 8.59375C46.1562 5.87983 43.9483 3.67188 41.2344 3.67188H14.7656C13.861 3.67188 13.125 2.93589 13.125 2.03125V0.390625H9.84375V2.03125C9.84375 4.74517 12.0517 6.95312 14.7656 6.95312Z" fill="#222222"/>
<path d="M44.2635 36.4844H49.4375C53.0561 36.4844 56 33.5404 56 29.9219C56 26.3033 53.0561 23.3594 49.4375 23.3594H46.1562V20.0781H9.84375V28.3906C9.84375 32.5977 11.2676 36.5758 13.8414 39.7656H0V43.0469H7.18922L10.4705 49.6094H45.5296L48.8109 43.0469H56V39.7656H42.1586C42.981 38.7465 43.6849 37.6463 44.2635 36.4844ZM49.4375 26.6406C51.2468 26.6406 52.7188 28.1126 52.7188 29.9219C52.7188 31.7312 51.2468 33.2031 49.4375 33.2031H45.5136C45.9354 31.6566 46.1562 30.0415 46.1562 28.3906V26.6406H49.4375ZM13.125 28.3906V23.3594H42.875V28.3906C42.875 32.814 40.953 36.9282 37.5837 39.7656H18.4163C15.047 36.9282 13.125 32.814 13.125 28.3906ZM43.5016 46.3281H12.4984L10.8578 43.0469H45.1423L43.5016 46.3281Z" fill="#222222"/>
</svg>
