<svg width="116" height="24" viewBox="0 0 116 24" fill="none" xmlns="http://www.w3.org/2000/svg">
<path d="M112.724 7.57803C112.617 7.57803 112.532 7.48849 112.532 7.38464V6.08656H112.161C112.07 6.08656 111.993 6.01011 111.993 5.91771C111.993 5.82245 112.071 5.74763 112.161 5.74763H113.285C113.374 5.74763 113.452 5.82245 113.452 5.91771C113.452 6.01011 113.374 6.08656 113.285 6.08656H112.913V7.38464C112.913 7.48849 112.828 7.57803 112.724 7.57803H112.724ZM115.5 7.57803C115.397 7.57803 115.311 7.48849 115.311 7.38464V6.25529L114.828 7.50722C114.812 7.5481 114.772 7.57794 114.726 7.57794C114.681 7.57794 114.641 7.54933 114.625 7.50722L114.142 6.25534V7.38464C114.142 7.48849 114.059 7.57803 113.956 7.57803C113.849 7.57803 113.762 7.48849 113.762 7.38464V6.04331C113.762 5.86873 113.902 5.72768 114.072 5.72768C114.207 5.72768 114.318 5.81272 114.364 5.93251L114.726 6.87723L115.092 5.93251C115.134 5.81272 115.249 5.72768 115.381 5.72768C115.554 5.72768 115.692 5.86914 115.692 6.04331V7.38473C115.692 7.48857 115.607 7.57811 115.5 7.57811L115.5 7.57803ZM13.9549 5.17656C13.9549 4.52752 14.1569 3.92607 14.4987 3.42703C13.4703 3.72999 12.7145 4.67033 12.7145 5.79674V7.78139L13.9549 7.84353V5.17656ZM12.7143 18.8238C12.7143 19.9503 13.47 20.8907 14.4999 21.1936C14.1566 20.6945 13.9547 20.0931 13.9547 19.444V15.7215H12.7143L12.7143 18.8238ZM15.816 15.7222H14.5755V19.4448C14.5755 20.5712 15.3313 21.5116 16.3597 21.8145C16.0178 21.3154 15.816 20.714 15.816 20.0649V15.7222ZM15.816 4.5561C15.816 3.90706 16.0179 3.30561 16.3597 2.80657C15.3313 3.10953 14.5755 4.04987 14.5755 5.17627V7.87485L15.816 7.93699V4.5561ZM1.82925 3.76155C0.922027 4.30233 0.307617 5.28454 0.307617 6.41675V18.2033C0.307617 19.337 0.922027 20.3178 1.82925 20.8586C1.64333 20.4101 1.54775 19.9293 1.54801 19.4437V5.1764C1.54801 4.67597 1.64899 4.19852 1.82929 3.76151L1.82925 3.76155ZM3.40923 3.93588C3.40923 3.43546 3.51021 2.95801 3.69051 2.521C2.78329 3.0619 2.16884 4.04263 2.16884 5.17627V19.445C2.16884 20.7778 3.01404 21.9042 4.19527 22.3426C3.7049 21.7124 3.40923 20.9234 3.40923 20.0652V3.93588Z" fill="#EE2841"/>
<path d="M18.9178 2.0747C17.5476 2.0747 16.437 3.18528 16.437 4.55548V8.58815L10.2337 8.27824V3.93543C10.2337 2.22344 8.84474 0.834473 7.13127 0.834473C5.41781 0.834473 4.03027 2.22344 4.03027 3.93543V20.0648C4.03027 21.7783 5.41781 23.1658 7.13127 23.1658C8.84474 23.1658 10.2337 21.7783 10.2337 20.0648V15.1019H16.437V20.0648C16.437 21.435 17.5476 22.5456 18.9178 22.5456C20.288 22.5456 21.3986 21.435 21.3986 20.0648V4.55564C21.3986 3.18545 20.288 2.07486 18.9178 2.07486V2.0747ZM40.3367 17.1823V12.5886H33.6357V17.1823C33.6357 17.6727 33.2361 18.0895 32.7458 18.0895C32.2381 18.0895 31.8198 17.6727 31.8198 17.1823V6.70395C31.8198 6.21358 32.2381 5.79673 32.7285 5.79673C33.2361 5.79673 33.6357 6.21358 33.6357 6.70395V10.9717H40.3367V6.70395C40.3367 6.21358 40.7362 5.79673 41.2453 5.79673C41.753 5.79673 42.1525 6.21358 42.1525 6.70395V17.1823C42.1525 17.6727 41.753 18.0895 41.2453 18.0895C40.7362 18.0895 40.3367 17.6727 40.3367 17.1823ZM43.4358 13.6047C43.4358 11.0806 45.1435 9.01093 47.8666 9.01093C50.6084 9.01093 52.2974 11.0806 52.2974 13.6047C52.2974 16.1475 50.6084 18.2171 47.8666 18.2171C45.1435 18.2171 43.4358 16.1475 43.4358 13.6047V13.6047ZM50.5911 13.6047C50.5911 11.9518 49.6276 10.4633 47.8666 10.4633C46.1229 10.4633 45.1435 11.9518 45.1435 13.6047C45.1435 15.2749 46.1228 16.7648 47.8666 16.7648C49.6276 16.7648 50.5911 15.2749 50.5911 13.6047ZM61.797 9.01065C64.4307 9.01065 66.0648 11.063 66.0648 13.3693C66.0648 13.8597 65.7187 14.1496 65.1013 14.1496H59.1273C59.2543 15.638 60.3446 16.8741 62.1057 16.8741C62.8499 16.8741 63.6316 16.6374 64.285 16.1645C64.3759 16.0926 64.5028 16.075 64.6485 16.075C65.0119 16.075 65.3018 16.3648 65.3018 16.7283C65.3018 16.9634 65.1923 17.1452 65.012 17.2735C64.1393 17.9081 63.1038 18.2168 61.9427 18.2168C59.3278 18.2168 57.4023 16.3648 57.4023 13.6043C57.4023 11.0629 59.2369 9.01052 61.797 9.01052V9.01065ZM59.11 12.9696H64.4667C64.4308 11.8072 63.649 10.3548 61.797 10.3548C60.036 10.3548 59.1994 11.7711 59.11 12.9696ZM67.1048 17.2729V6.61278C67.1048 6.1599 67.4682 5.79644 67.9226 5.79644C68.3581 5.79644 68.7389 6.1599 68.7389 6.61278V17.2729C68.7389 17.7272 68.3581 18.0906 67.9226 18.0906C67.815 18.0911 67.7085 18.0703 67.6091 18.0293C67.5097 17.9884 67.4193 17.9282 67.3433 17.8521C67.2673 17.7761 67.2071 17.6858 67.1661 17.5864C67.1252 17.4869 67.1043 17.3804 67.1048 17.2729ZM69.79 16.6555C69.79 16.256 70.0986 15.9473 70.4981 15.9473C70.6438 15.9473 70.788 16.0021 70.8976 16.074C71.5698 16.5644 72.4409 16.9091 73.3669 16.9091C74.6015 16.9091 75.2549 16.4014 75.2549 15.6558C75.2549 14.7846 74.2568 14.4947 73.1303 14.2409C71.6419 13.8946 69.8996 13.4952 69.8996 11.6072C69.8996 10.2096 71.0967 9.01105 73.24 9.01105C74.4573 9.01105 75.4193 9.37288 76.1635 9.91828C76.3265 10.045 76.4534 10.227 76.4534 10.4635C76.4534 10.8253 76.1448 11.1341 75.7828 11.1341C75.6558 11.1341 75.5101 11.0806 75.4193 11.0074C74.8568 10.5906 74.0938 10.3367 73.2587 10.3367C72.151 10.3367 71.4602 10.7723 71.4602 11.4805C71.4602 12.2435 72.4049 12.4973 73.4938 12.7512C75.0198 13.0958 76.8356 13.5141 76.8356 15.529C76.8356 17.0362 75.601 18.2175 73.2948 18.2175C72.0775 18.2175 70.9885 17.9088 70.0986 17.2367C69.9169 17.11 69.79 16.8921 69.79 16.6555ZM78.9796 15.9291C79.5969 15.9291 80.1233 16.4382 80.1233 17.0555C80.1233 17.6729 79.5969 18.1993 78.9796 18.1993C78.3623 18.1993 77.8531 17.6729 77.8531 17.0555C77.8531 16.4382 78.3623 15.9291 78.9796 15.9291ZM88.608 13.6047C88.608 11.0806 90.3142 9.01093 93.0387 9.01093C95.7806 9.01093 97.4695 11.0806 97.4695 13.6047C97.4695 16.1475 95.7806 18.2171 93.0387 18.2171C90.3142 18.2171 88.608 16.1475 88.608 13.6047V13.6047ZM95.7633 13.6047C95.7633 11.9518 94.7998 10.4633 93.0387 10.4633C91.295 10.4633 90.3142 11.9518 90.3142 13.6047C90.3142 15.2749 91.295 16.7648 93.0387 16.7648C94.7998 16.7648 95.7633 15.2749 95.7633 13.6047ZM110.991 11.6616V17.2737C110.991 17.7265 110.609 18.09 110.156 18.09C109.72 18.09 109.357 17.7265 109.357 17.2737V12.152C109.357 11.1352 108.902 10.6448 107.831 10.6448C106.941 10.6448 106.07 11.6457 105.651 12.2818V17.2737C105.652 17.381 105.631 17.4873 105.59 17.5866C105.549 17.6859 105.489 17.776 105.413 17.8519C105.337 17.9278 105.247 17.9879 105.148 18.0288C105.049 18.0697 104.942 18.0905 104.835 18.09C104.399 18.09 104.017 17.7265 104.017 17.2737V12.152C104.017 11.1352 103.582 10.6448 102.474 10.6448C101.62 10.6448 100.768 11.7063 100.331 12.3409V17.2736C100.331 17.7265 99.9499 18.09 99.5143 18.09C99.06 18.09 98.6965 17.7265 98.6965 17.2736V9.95532C98.6965 9.50101 99.06 9.13755 99.4956 9.13755C99.9499 9.13755 100.331 9.50101 100.331 9.95532V10.463C100.694 9.91783 101.857 9.0106 103.163 9.0106C104.49 9.0106 105.271 9.70004 105.543 10.6448C106.051 9.82698 107.238 9.0106 108.527 9.0106C110.144 9.0106 110.991 9.90053 110.991 11.6616Z" fill="#EE2841"/>
<path d="M85.0214 9.01043C86.2747 9.01043 87.1459 9.40987 87.818 10.0273C87.9622 10.154 88.0719 10.3719 88.0719 10.5725C88.0719 10.9893 87.7444 11.3167 87.3464 11.3167C87.1459 11.3167 86.9829 11.2431 86.8545 11.1347C86.3468 10.6631 85.7844 10.4626 85.0935 10.4626C83.3685 10.4626 82.2608 11.7881 82.2608 13.604C82.2608 15.4198 83.3699 16.7064 85.0935 16.7641C86.2575 16.805 87.43 15.9578 88.3719 14.4709C88.4887 14.2861 88.6603 13.9429 88.8017 13.7641C89.0685 13.4268 89.2589 13.5883 89.4161 13.7518C89.7045 14.0532 89.7017 14.7687 89.5142 15.1206C88.9848 16.1086 88.5392 16.5687 88.033 17.0634C87.3276 17.7471 86.2747 18.2158 85.0214 18.2158C82.3704 18.2158 80.5546 16.237 80.5546 13.6033C80.5546 10.9711 82.3704 9.00953 85.0214 9.00953V9.01043ZM58.5695 16.6544C58.5695 16.9631 57.6854 17.6539 57.0493 17.9626C56.6873 18.1384 56.3224 18.2165 55.796 18.2165C54.4157 18.2165 53.7075 17.4362 53.7075 16.0559V10.6631H52.8724C52.4917 10.6631 52.1455 10.3356 52.1455 9.93614C52.1455 9.5555 52.4917 9.22802 52.8724 9.22802H53.7075V7.55777C53.7071 7.45025 53.7279 7.34371 53.7689 7.2443C53.8098 7.14488 53.87 7.05455 53.9461 6.97853C54.0221 6.9025 54.1124 6.84228 54.2118 6.80134C54.3113 6.7604 54.4178 6.73955 54.5253 6.74C54.9609 6.74 55.3416 7.10346 55.3416 7.55777V9.22798H56.4868C56.8849 9.22798 57.2124 9.55546 57.2124 9.93614C57.2124 10.3356 56.8849 10.6631 56.4869 10.6631H55.3417V15.6925C55.3417 16.3098 55.633 16.7641 56.1955 16.7641C57.195 16.7641 57.9811 15.2121 58.4239 15.2121C58.8407 15.2121 58.5695 16.2549 58.5695 16.6545" fill="#EE2841"/>
</svg>
