<svg width="116" height="28" viewBox="0 0 116 28" fill="none" xmlns="http://www.w3.org/2000/svg">
<path d="M59.7442 15.7734L55.3666 4.76661L51.0143 15.7003C53.924 15.6051 56.8364 15.6295 59.7442 15.7734ZM96.0755 26.933C86.6941 22.8535 76.1438 19.8323 63.7468 18.8125L67.5217 27.9801H64.5998L60.8737 18.6156C57.2165 18.408 53.5513 18.3789 49.8913 18.5284L46.1295 27.9801H43.2058L47.0332 18.6793C33.8835 19.5417 22.6845 22.6576 12.8475 26.9302V26.3528C19.413 22.6886 25.9054 19.9532 32.9142 18.1666V12.5394L25.0214 0.421804H27.9535L34.2172 10.4903L40.4836 0.422777H43.413L35.5211 12.5394L35.5192 17.5498C39.5312 16.679 43.7232 16.1034 48.2068 15.8306L54.7123 0.0206223H56.0162L62.5732 15.9562C66.9743 16.3078 71.0997 16.9555 75.0545 17.9032V2.53002H68.6053V0.421804H84.1716V2.53093H77.7252V18.5959C84.0844 20.3723 90.0518 22.9557 96.0755 26.3584V26.933ZM106.505 0.421804H90.9405V2.53093H97.3897V21.5318H100.058V2.53093H106.505V0.421804ZM17.1539 21.5318L14.4851 21.5337V11.1174H2.97588V21.5318H0.307129V0.421804H2.97588V9.01113H14.4851V0.421804H17.1539V21.5318ZM113.546 2.06601C113.418 1.99102 113.212 1.95353 112.929 1.95353H112.494V3.0109H112.954C113.173 3.0109 113.332 2.98746 113.442 2.94527C113.534 2.91194 113.613 2.8497 113.667 2.7678C113.722 2.68589 113.748 2.58872 113.742 2.49065C113.742 2.27974 113.675 2.13913 113.546 2.06601ZM112.996 1.6095C113.353 1.6095 113.618 1.6442 113.787 1.71169C114.087 1.8373 114.236 2.08472 114.236 2.44843C114.236 2.70621 114.142 2.89837 113.954 3.02211C113.825 3.09607 113.682 3.14298 113.533 3.15994C113.765 3.19556 113.928 3.29021 114.035 3.44395C114.13 3.57606 114.184 3.73322 114.19 3.89576V4.10671C114.19 4.17514 114.192 4.24732 114.197 4.32138C114.197 4.37367 114.205 4.42563 114.222 4.47511L114.241 4.5107H113.765L113.757 4.4826C113.754 4.47229 113.754 4.45913 113.751 4.44788L113.739 4.35416V4.12359C113.739 3.78988 113.645 3.56862 113.464 3.46082C113.353 3.39989 113.168 3.36711 112.895 3.36711H112.494V4.5107H111.98V1.6095H112.996ZM111.442 1.45949C111.228 1.6688 111.058 1.91972 110.944 2.1968C110.83 2.47389 110.774 2.77129 110.779 3.07086C110.779 3.70359 110.998 4.24258 111.438 4.68972C111.646 4.90629 111.895 5.0776 112.172 5.1928C112.449 5.30799 112.746 5.36462 113.046 5.35906C113.676 5.35906 114.212 5.13779 114.656 4.68972C115.097 4.24352 115.317 3.70359 115.317 3.07086C115.322 2.77137 115.266 2.47406 115.152 2.19692C115.039 1.91977 114.87 1.66858 114.656 1.45857C114.447 1.24408 114.197 1.07444 113.92 0.960014C113.643 0.845589 113.346 0.788757 113.046 0.793007C112.748 0.788679 112.451 0.845495 112.176 0.959957C111.9 1.07442 111.651 1.24412 111.443 1.45857L111.442 1.45949ZM114.915 4.94094C114.674 5.19247 114.384 5.39143 114.062 5.52532C113.74 5.65922 113.394 5.72516 113.046 5.71899C112.315 5.71899 111.691 5.46119 111.176 4.94094C110.928 4.6967 110.733 4.40483 110.601 4.08291C110.47 3.76099 110.405 3.41574 110.411 3.06805C110.411 2.34158 110.669 1.71822 111.185 1.20266C111.699 0.688969 112.32 0.431189 113.046 0.431189C113.779 0.431189 114.401 0.688946 114.915 1.20357C115.166 1.44408 115.364 1.73389 115.498 2.05474C115.632 2.37559 115.697 2.72057 115.691 3.06805C115.691 3.79734 115.434 4.42163 114.915 4.94094Z" fill="#4B77A9"/>
</svg>
