<svg width="116" height="54" viewBox="0 0 116 54" fill="none" xmlns="http://www.w3.org/2000/svg">
<path d="M103.35 51.5182C103.35 51.5182 104.096 52.2636 105.131 52.2636C105.794 52.2636 106.332 51.8909 106.332 51.2282C106.332 49.6959 102.936 50.0272 102.936 47.8736C102.936 46.7967 103.888 45.927 105.214 45.927C106.539 45.927 107.202 46.6311 107.202 46.6311L106.746 47.4594C106.746 47.4594 106.083 46.8382 105.214 46.8382C104.468 46.8382 103.93 47.2937 103.93 47.8736C103.93 49.3231 107.326 48.9504 107.326 51.2282C107.326 52.3051 106.498 53.2162 105.09 53.2162C103.599 53.2162 102.77 52.3051 102.77 52.3051L103.35 51.5182Z" fill="#0E7755"/>
<path d="M7.63822 17.9717H0.307617V38.9695H2.70974V30.8934H7.63822C11.5727 30.8934 14.1819 28.2842 14.1819 24.3911C14.1819 20.5395 11.5313 17.9717 7.63822 17.9717ZM2.70974 20.1667H7.38972C10.0818 20.1667 11.7384 21.7819 11.7384 24.3911C11.7384 27.0417 10.0818 28.6984 7.34831 28.6984H2.70974V20.1667Z" fill="#0E7755"/>
<path d="M25.323 17.9717L17.6196 38.9695H20.146L22.5067 32.3844H30.5414L32.9021 38.9695H35.4285L27.7665 17.9717H25.323ZM29.6716 30.3964L23.0865 30.1893L25.9856 23.0244C26.2341 22.4032 26.524 21.492 26.6897 20.8708C26.814 21.4506 27.0624 22.4032 27.2695 23.0244L29.6716 30.3964Z" fill="#0E7755"/>
<path d="M50.9591 29.7335C53.2784 28.988 54.7693 26.793 54.7693 24.0595C54.7693 21.5332 53.5683 19.4624 51.5389 18.5926C50.7106 18.2199 49.758 18.0128 47.6044 18.0128H41.3506V39.0107H43.7527V30.3133H48.6812L53.3612 39.0107H56.0946L51.4561 30.4376C51.2076 30.1063 51.0833 29.8578 50.9591 29.7335ZM52.3672 24.101C52.3672 26.5859 50.8762 28.1183 48.4741 28.1183H43.7527V20.1664H47.7286C49.3438 20.1664 50.0065 20.3321 50.5863 20.6634C51.746 21.2433 52.3672 22.4857 52.3672 24.101Z" fill="#0E7755"/>
<path d="M73.5724 17.9717L68.0227 26.9589H64.7923V17.9717H62.3901V38.9695H64.7923V29.1125H68.0227L73.9037 38.9695H76.72L70.0107 27.9529L76.3059 17.9717H73.5724Z" fill="#0E7755"/>
<path d="M1.3016 49.1165V46.0518H0.307617V53.0924H1.3016V49.9862H4.94619V53.0924H5.94017V46.0518H4.94619V49.1165H1.3016Z" fill="#0E7755"/>
<path d="M11.987 45.927C14.0163 45.927 15.5901 47.5008 15.5901 49.5302C15.5901 51.601 14.0163 53.2162 11.987 53.2162C9.95759 53.2162 8.38379 51.601 8.38379 49.5302C8.38379 47.5008 9.95759 45.927 11.987 45.927ZM11.987 52.3051C13.4365 52.3051 14.5962 51.104 14.5962 49.5302C14.5962 47.9978 13.4365 46.8382 11.987 46.8382C10.5374 46.8382 9.37777 47.9978 9.37777 49.5302C9.37777 51.104 10.5788 52.3051 11.987 52.3051Z" fill="#0E7755"/>
<path d="M19.4417 46.8801V53.0924H20.4357V46.8801H22.8792V46.0518H17.0396V46.8801H19.4417Z" fill="#0E7755"/>
<path d="M29.133 53.0924V52.2227H25.8612V49.9448H28.3875V49.1165H25.8612V46.8801H28.9674V46.0518H24.8672V53.0924H29.133Z" fill="#0E7755"/>
<path d="M37.8718 51.5182C37.8718 51.5182 38.6173 52.2636 39.6527 52.2636C40.3154 52.2636 40.8538 51.8909 40.8538 51.2282C40.8538 49.6959 37.4577 50.0272 37.4577 47.8736C37.4577 46.7967 38.4102 45.927 39.7355 45.927C41.0608 45.927 41.7235 46.6311 41.7235 46.6311L41.2679 47.4594C41.2679 47.4594 40.6053 46.8382 39.7355 46.8382C38.99 46.8382 38.4516 47.2937 38.4516 47.8736C38.4516 49.3231 41.8478 48.9504 41.8478 51.2282C41.8478 52.3051 41.0194 53.2162 39.6113 53.2162C38.1203 53.2162 37.292 52.3051 37.292 52.3051L37.8718 51.5182Z" fill="#0E7755"/>
<path d="M49.3025 49.282C49.3025 49.282 48.3914 48.9506 48.3914 47.7082C48.3914 46.5485 49.3025 45.8859 50.545 45.8859C50.9178 45.8859 51.4148 46.0101 51.4148 46.0101L51.1663 46.797C51.1663 46.797 50.8764 46.7556 50.6279 46.7556C49.9238 46.7556 49.3854 47.1283 49.3854 47.8324C49.3854 48.288 49.5925 48.9506 50.6693 48.9506H51.9946V47.9981H52.9472V48.9506H53.8997V49.8204H52.9472V50.7729C52.9472 52.3467 52.036 53.2579 50.5036 53.2579C49.054 53.2579 48.0601 52.3467 48.0601 51.1457C48.0601 50.3174 48.5156 49.5719 49.3025 49.282ZM50.5036 52.3053C51.4148 52.3053 51.9532 51.8083 51.9532 50.6901V49.7789H50.5864C49.5925 49.7789 49.0126 50.2345 49.0126 51.0214C49.054 51.7255 49.6339 52.3053 50.5036 52.3053Z" fill="#0E7755"/>
<path d="M59.2837 46.0518H61.4373C62.1828 46.0518 62.4727 46.0932 62.7626 46.2174C63.4667 46.4659 63.9637 47.2114 63.9637 48.1225C63.9637 49.0337 63.4667 49.7792 62.6798 50.0276C62.6798 50.0276 62.7626 50.1105 62.8869 50.359L64.3778 53.0924H63.2596L61.7686 50.2761H60.2777V53.0924H59.2837V46.0518ZM61.6858 49.4064C62.4727 49.4064 62.9283 48.9094 62.9283 48.1225C62.9283 47.5841 62.7212 47.2528 62.3485 47.0457C62.1414 46.9629 61.9343 46.8801 61.3959 46.8801H60.2777V49.4064H61.6858Z" fill="#0E7755"/>
<path d="M70.9216 53.0924V52.2227H67.6498V49.9448H70.1762V49.1165H67.6498V46.8801H70.756V46.0518H66.6558V53.0924H70.9216Z" fill="#0E7755"/>
<path d="M94.7358 35.5732V31.2659L97.9248 32.8397V37.147L94.7358 35.5732ZM98.9188 32.8397L102.108 31.2659V35.5732L98.9188 37.147V32.8397ZM90.5528 33.4609V29.1537L93.7418 30.7275V35.0347L90.5528 33.4609ZM103.102 30.7689L106.291 29.1951V33.5024L103.102 35.0762V30.7689ZM86.3698 31.3901V27.0829L89.5588 28.6567V32.9639L86.3698 31.3901ZM107.285 28.6567L110.474 27.0829V31.3901L107.285 32.9639V28.6567ZM94.7358 30.1477V25.8404L97.9248 27.4142V31.7215L94.7358 30.1477ZM98.9188 27.4556L102.108 25.8818V30.1891L98.9188 31.7629V27.4556ZM82.1868 29.2779V25.0121L85.3759 26.5859V30.8932L82.1868 29.2779ZM111.509 26.5859L114.698 25.0121V29.3194L111.509 30.8932V26.5859ZM90.5528 28.0769V23.7696L93.7418 25.3434V29.6507L90.5528 28.0769ZM103.102 25.3434L106.291 23.7696V28.0769L103.102 29.6507V25.3434ZM86.3698 25.9647V21.6988L89.5588 23.2726V27.5799L86.3698 25.9647ZM107.285 23.2726L110.474 21.6988V26.0061L107.285 27.5799V23.2726ZM94.7358 24.7636V20.4564L97.9248 22.0302V26.3374L94.7358 24.7636ZM98.9188 22.0302L102.108 20.4564V24.7636L98.9188 26.3374V22.0302ZM82.1868 23.8939V19.5866L85.3759 21.1604V25.4677L82.1868 23.8939ZM111.509 21.2018L114.698 19.628V23.9353L111.509 25.5091V21.2018ZM90.5528 22.6514V18.3441L93.7418 19.9179V24.2252L90.5528 22.6514ZM103.102 19.9594L106.291 18.3856V22.6928L103.102 24.2666V19.9594ZM86.3698 20.5806V16.2734L89.5588 17.8472V22.1544L86.3698 20.5806ZM107.285 17.8472L110.474 16.2734V20.5806L107.285 22.1544V17.8472ZM94.7358 19.3381V15.0309L97.9248 16.6047V20.9119L94.7358 19.3381ZM98.9188 16.6461L102.108 15.0723V19.3795L98.9188 20.9533V16.6461ZM90.5528 17.2673V12.9601L93.7418 14.5339V18.8411L90.5528 17.2673ZM103.102 14.5339L106.291 12.9601V17.2673L103.102 18.8411V14.5339ZM86.3698 15.1551V10.8479L89.5588 12.4217V16.7289L86.3698 15.1551ZM107.285 12.4631L110.474 10.8893V15.1965L107.285 16.7703V12.4631ZM94.7358 13.9126V9.64681L97.9248 11.2206V15.5279L94.7358 13.9126ZM98.9188 11.2206L102.108 9.64681V13.9541L98.9188 15.5279V11.2206ZM90.5528 11.8419V7.5346L93.7418 9.10841V13.4157L90.5528 11.8419ZM103.102 9.14982L106.291 7.57602V11.8833L103.102 13.4571V9.14982ZM94.7358 8.52858V4.22133L97.9248 5.79513V10.1024L94.7358 8.52858ZM98.9188 5.83655L102.108 4.26275V8.57L98.9188 10.1438V5.83655ZM95.3571 3.43443L98.4218 1.90204L101.487 3.43443L98.4218 4.96682L95.3571 3.43443ZM98.4218 0.783813L93.7418 3.1031V8.03159L89.5588 5.9608V11.3863L85.3759 9.31548V20.125L81.1929 18.0542V29.982L97.9662 38.348V43.4422H98.9602V38.2652L115.734 29.8992V17.9714L111.551 20.0422V9.27407L107.368 11.3449V5.9608L103.185 8.03159V3.1031L98.4218 0.783813Z" fill="#0E7755"/>
<path d="M73.4067 51.5182C73.4067 51.5182 74.1522 52.2636 75.1876 52.2636C75.8503 52.2636 76.3887 51.8909 76.3887 51.2282C76.3887 49.6959 72.9926 50.0272 72.9926 47.8736C72.9926 46.7967 73.9451 45.927 75.2705 45.927C76.5958 45.927 77.2585 46.6311 77.2585 46.6311L76.8029 47.4594C76.8029 47.4594 76.1402 46.8382 75.2705 46.8382C74.525 46.8382 73.9866 47.2937 73.9866 47.8736C73.9866 49.3231 77.3827 48.9504 77.3827 51.2282C77.3827 52.3051 76.5544 53.2162 75.1462 53.2162C73.6552 53.2162 72.8269 52.3051 72.8269 52.3051L73.4067 51.5182Z" fill="#0E7755"/>
<path d="M82.9738 45.927C85.0032 45.927 86.577 47.5008 86.577 49.5302C86.577 51.601 85.0032 53.2162 82.9738 53.2162C80.9444 53.2162 79.3706 51.601 79.3706 49.5302C79.3706 47.5008 80.9444 45.927 82.9738 45.927ZM82.9738 52.3051C84.4234 52.3051 85.583 51.104 85.583 49.5302C85.583 47.9978 84.4234 46.8382 82.9738 46.8382C81.5243 46.8382 80.3646 47.9978 80.3646 49.5302C80.3646 51.104 81.5243 52.3051 82.9738 52.3051Z" fill="#0E7755"/>
<path d="M89.0205 46.0518H91.1741C91.9196 46.0518 92.2095 46.0932 92.4994 46.2174C93.2035 46.4659 93.7005 47.2114 93.7005 48.1225C93.7005 49.0337 93.2035 49.7792 92.4166 50.0276C92.4166 50.0276 92.4994 50.1105 92.6237 50.359L94.1147 53.0924H92.9964L91.5055 50.2761H90.0145V53.0924H89.0205V46.0518ZM91.4226 49.4064C92.2095 49.4064 92.6651 48.9094 92.6651 48.1225C92.6651 47.5841 92.458 47.2528 92.0853 47.0457C91.8782 46.9629 91.6711 46.8801 91.1327 46.8801H90.0145V49.4064H91.4226Z" fill="#0E7755"/>
</svg>
