<svg width="98" height="68" viewBox="0 0 98 68" fill="none" xmlns="http://www.w3.org/2000/svg">
<path d="M58.3626 24.7019C58.3626 25.9258 58.0518 27.345 57.1533 28.6016H59.693V8.98889H51.575V17.0008C55.9649 18.3619 58.3626 21.1753 58.3626 24.7019Z" fill="#213E99"/>
<path d="M44.3295 16.3029C46.1596 16.3029 47.8654 16.7315 49.1692 17.0763C46.4078 16.5899 42.1256 17.2934 39.9144 19.0376V28.6015H48.0357V17.7205C49.4292 17.9722 50.7552 18.5103 51.9301 19.3007V28.6015H53.6948C52.0367 30.476 48.9298 31.6171 46.2528 31.1973V31.5905C53.9697 32.1996 57.2396 28.5365 57.2396 24.4181C57.2396 19.5663 52.6897 16.7283 48.0357 16.1519V8.98884H39.9144V16.2318C34.6565 17.2857 29.5093 20.4079 29.5093 25.5843C29.5093 33.5502 40.6369 38.4847 50.3304 38.4847C65.0505 38.4847 76.3764 31.3729 76.3764 21.3819C76.3764 9.29319 60.0215 0.666504 47.1768 0.666504C32.4571 0.666504 21.6188 10.0177 21.6188 20.0087C21.6188 25.1794 24.5251 29.5149 28.1865 32.5366L28.463 32.3505C25.5641 29.9412 22.9476 26.1865 22.9476 21.0259C23.7129 10.0944 37.1866 3.93642 49.1776 3.93642C57.6558 3.93642 72.8901 5.89652 72.8901 20.0753C72.8901 27.4693 64.988 37.0865 48.3881 37.0865C39.8886 37.0865 33.287 32.5366 33.287 25.9911C33.2874 20.3292 37.7218 16.3029 44.3295 16.3029ZM12.8824 66.9372V65.8195H15.7293V56.1607H8.12663V65.8195H11.0462V66.9372H0.562744V65.8195H3.2268V46.1479H0.562744V45.0302H11.0462V46.1479H8.12663V54.8658H15.7293V46.1479H12.8824V45.0302H23.2605V46.1479H20.5924V65.8195H23.2605V66.9372H12.8824ZM27.2799 45.0302H32.0369V47.6261H27.2799V45.0302ZM24.94 66.9372V65.8195H27.4971V52.3471H24.94V51.2298H32.2169V65.8195H34.5968V66.9372H24.94ZM35.6213 66.9372V65.8195H38.251V43.2651H35.6213V42.1506H43.0063V65.8195H45.4912V66.9372H35.6213ZM52.8936 66.9372C50.3006 66.9372 48.8971 65.604 48.8971 63.549V52.3471H46.3368V51.2294H48.8971V44.9975C50.3393 44.9975 51.8498 45.0302 53.3279 44.9975V51.2294H57.0027V52.3471H53.3279V65.8195H57.0766V66.9372H52.8936ZM75.3737 58.721C74.9778 52.7757 70.0081 50.724 66.5816 50.724C62.7296 50.724 57.5411 53.1366 57.5411 58.9725C57.5411 63.1914 60.6395 67.3332 66.6914 67.3332C72.1313 67.3332 74.3691 63.6939 74.9071 62.2158C75.3382 61.1364 75.4476 59.8742 75.3737 58.721ZM66.5816 66.4318C64.9258 66.4318 63.9179 65.604 63.4477 64.7022C63.1611 64.1613 62.7651 63.3718 62.7651 58.9019C62.7651 55.5875 62.8361 51.7678 66.546 51.7678C68.0242 51.7678 69.1391 52.3802 69.7538 53.7518C69.9694 54.2543 70.2236 54.7597 70.2563 58.7565C70.2919 62.4345 70.2919 66.4318 66.5816 66.4318ZM88.0716 66.9372V65.8195H90.162V56.5603C90.162 54.4698 90.162 52.4181 87.856 52.4181C86.5579 52.4181 84.4327 53.713 83.927 55.8414C83.7465 56.4889 83.7821 57.1751 83.7821 58.9014V65.8195H86.1595V66.9372H76.5068V65.8195H79.0639V52.3471H76.5068V51.2294H83.7821V53.6064C84.5748 52.5985 85.2251 51.874 86.7743 51.2649C87.6756 50.8858 88.6434 50.6898 89.6212 50.6885C89.9082 50.6885 90.7716 50.6885 91.7794 50.9751C94.8068 51.874 94.9517 54.1828 94.9517 55.8414V65.8195H97.4373V66.9372H88.0716Z" fill="#213E99"/>
</svg>
