<svg width="16" height="16" viewBox="0 0 16 16" fill="none" xmlns="http://www.w3.org/2000/svg">
<path d="M16 8.00004C16 3.58173 12.4183 0 8.00001 0C3.58172 0 0 3.58173 0 8.00004C0 11.9931 2.92548 15.3027 6.75 15.9029V10.3125H4.71875V8.00004H6.75V6.23753C6.75 4.23252 7.94434 3.12502 9.77172 3.12502C10.647 3.12502 11.5625 3.28126 11.5625 3.28126V5.25002H10.5537C9.55992 5.25002 9.25001 5.8667 9.25001 6.49937V8.00004H11.4688L11.1141 10.3125H9.25V15.9029C13.0745 15.3027 16 11.9931 16 8.00004Z" fill="#1877F2"/>
<path d="M11.1141 10.3125L11.4688 8.00002H9.24999V6.49934C9.24999 5.86668 9.55992 5.25001 10.5537 5.25001H11.5625V3.28125C11.5625 3.28125 10.647 3.125 9.77171 3.125C7.94434 3.125 6.75 4.2325 6.75 6.23751V8.00002H4.71875V10.3125H6.75V15.9029C7.16351 15.9677 7.58144 16.0002 8 16.0001C8.42525 16.0001 8.8427 15.9668 9.24999 15.9029V10.3125H11.1141Z" fill="white"/>
</svg>
