<svg width="16" height="16" viewBox="0 0 16 16" fill="none" xmlns="http://www.w3.org/2000/svg">
<path d="M8.00261 0C4.66268 0 3.68588 0.00344645 3.49601 0.0192016C2.8106 0.0761911 2.3841 0.184139 1.91945 0.415543C1.56136 0.593404 1.27895 0.799575 1.00024 1.08858C0.492639 1.61564 0.185005 2.26407 0.0736409 3.03484C0.0194972 3.40903 0.0037463 3.48534 0.000546906 5.39664C-0.000683632 6.03374 0.000546906 6.87221 0.000546906 7.99686C0.000546906 11.335 0.00423852 12.3111 0.0202355 12.5006C0.0756097 13.1678 0.180205 13.5875 0.401702 14.0466C0.825007 14.9254 1.63347 15.5852 2.58591 15.8314C2.91569 15.9163 3.27993 15.9631 3.74753 15.9852C3.94565 15.9938 5.96496 16 7.98551 16C10.006 16 12.0266 15.9975 12.2198 15.9877C12.7612 15.9622 13.0756 15.92 13.4233 15.8301C13.8955 15.709 14.3356 15.4862 14.7129 15.1773C15.0902 14.8684 15.3954 14.4808 15.6075 14.0417C15.8246 13.5936 15.9348 13.1579 15.9846 12.5256C15.9954 12.3878 16 10.1898 16 7.99477C16 5.79938 15.9951 3.60547 15.9842 3.46762C15.9338 2.8251 15.8237 2.39306 15.5995 1.93641C15.4155 1.56259 15.2112 1.28343 14.9147 0.997992C14.3855 0.492349 13.7383 0.184631 12.9668 0.0733601C12.5931 0.0193247 12.5187 0.00332336 10.6064 0H8.00261Z" fill="url(#paint0_radial_18_32)"/>
<path d="M8.00261 0C4.66268 0 3.68588 0.00344645 3.49601 0.0192016C2.8106 0.0761911 2.3841 0.184139 1.91945 0.415543C1.56136 0.593404 1.27895 0.799575 1.00024 1.08858C0.492639 1.61564 0.185005 2.26407 0.0736409 3.03484C0.0194972 3.40903 0.0037463 3.48534 0.000546906 5.39664C-0.000683632 6.03374 0.000546906 6.87221 0.000546906 7.99686C0.000546906 11.335 0.00423852 12.3111 0.0202355 12.5006C0.0756097 13.1678 0.180205 13.5875 0.401702 14.0466C0.825007 14.9254 1.63347 15.5852 2.58591 15.8314C2.91569 15.9163 3.27993 15.9631 3.74753 15.9852C3.94565 15.9938 5.96496 16 7.98551 16C10.006 16 12.0266 15.9975 12.2198 15.9877C12.7612 15.9622 13.0756 15.92 13.4233 15.8301C13.8955 15.709 14.3356 15.4862 14.7129 15.1773C15.0902 14.8684 15.3954 14.4808 15.6075 14.0417C15.8246 13.5936 15.9348 13.1579 15.9846 12.5256C15.9954 12.3878 16 10.1898 16 7.99477C16 5.79938 15.9951 3.60547 15.9842 3.46762C15.9338 2.8251 15.8237 2.39306 15.5995 1.93641C15.4155 1.56259 15.2112 1.28343 14.9147 0.997992C14.3855 0.492349 13.7383 0.184631 12.9668 0.0733601C12.5931 0.0193247 12.5187 0.00332336 10.6064 0H8.00261Z" fill="url(#paint1_radial_18_32)"/>
<path d="M7.99876 2.09229C6.39462 2.09229 6.19331 2.0993 5.56327 2.12798C4.93447 2.15678 4.50525 2.25636 4.12969 2.40247C3.74121 2.55337 3.41167 2.75523 3.08337 3.08375C2.75481 3.41215 2.553 3.74178 2.40165 4.13024C2.25521 4.50603 2.15554 4.93548 2.12724 5.56421C2.09918 6.19441 2.0918 6.39591 2.0918 8.00047C2.0918 9.60504 2.09893 9.80579 2.12748 10.436C2.1564 11.065 2.25595 11.4943 2.40189 11.87C2.55288 12.2586 2.75469 12.5882 3.08312 12.9166C3.4113 13.2452 3.74084 13.4476 4.12908 13.5985C4.50488 13.7446 4.93422 13.8442 5.5629 13.873C6.19294 13.9016 6.39413 13.9087 7.99814 13.9087C9.60239 13.9087 9.8031 13.9016 10.4331 13.873C11.0619 13.8442 11.4916 13.7446 11.8674 13.5985C12.2558 13.4476 12.5849 13.2452 12.913 12.9166C13.2416 12.5882 13.4434 12.2586 13.5948 11.8701C13.74 11.4943 13.8396 11.0649 13.8692 10.4361C13.8975 9.80592 13.9049 9.60504 13.9049 8.00047C13.9049 6.39591 13.8975 6.19454 13.8692 5.56433C13.8396 4.93535 13.74 4.50603 13.5948 4.13036C13.4434 3.74178 13.2416 3.41215 12.913 3.08375C12.5845 2.75511 12.2559 2.55325 11.8671 2.40247C11.4905 2.25636 11.0611 2.15678 10.4323 2.12798C9.80223 2.0993 9.60166 2.09229 7.99703 2.09229H7.99876ZM7.46888 3.15699C7.62615 3.15674 7.80162 3.15699 7.99876 3.15699C9.57581 3.15699 9.76273 3.16265 10.3855 3.19096C10.9614 3.2173 11.274 3.31356 11.4822 3.39443C11.7578 3.50151 11.9543 3.62952 12.1609 3.83631C12.3677 4.0431 12.4956 4.24003 12.6029 4.51575C12.6838 4.72377 12.7801 5.03641 12.8063 5.61246C12.8347 6.23528 12.8408 6.42237 12.8408 7.99912C12.8408 9.57587 12.8347 9.76296 12.8063 10.3858C12.78 10.9618 12.6838 11.2745 12.6029 11.4825C12.4959 11.7582 12.3677 11.9545 12.1609 12.1612C11.9542 12.368 11.7579 12.496 11.4822 12.6031C11.2742 12.6843 10.9614 12.7803 10.3855 12.8067C9.76286 12.835 9.57581 12.8411 7.99876 12.8411C6.42157 12.8411 6.23465 12.835 5.612 12.8067C5.03611 12.7801 4.72355 12.6838 4.51522 12.603C4.23958 12.4959 4.04269 12.3679 3.83596 12.1611C3.62923 11.9543 3.50126 11.7578 3.39395 11.482C3.31311 11.274 3.21676 10.9613 3.19055 10.3853C3.16224 9.76247 3.15658 9.57537 3.15658 7.99764C3.15658 6.41991 3.16224 6.2338 3.19055 5.61098C3.21688 5.03493 3.31311 4.72229 3.39395 4.51403C3.50101 4.23831 3.62923 4.04137 3.83596 3.83459C4.04269 3.6278 4.23958 3.49979 4.51522 3.39246C4.72343 3.31122 5.03611 3.21521 5.612 3.18875C6.15688 3.16413 6.36804 3.15674 7.46888 3.15551V3.15699ZM11.1516 4.138C11.0114 4.138 10.8744 4.17958 10.7578 4.2575C10.6413 4.33541 10.5504 4.44615 10.4968 4.57572C10.4431 4.70528 10.4291 4.84785 10.4565 4.98538C10.4839 5.12292 10.5514 5.24925 10.6505 5.34839C10.7497 5.44753 10.876 5.51504 11.0135 5.54237C11.151 5.5697 11.2935 5.55562 11.4231 5.50192C11.5526 5.44822 11.6632 5.35731 11.7411 5.24069C11.819 5.12406 11.8605 4.98697 11.8604 4.84673C11.8604 4.45531 11.543 4.13775 11.1516 4.13775V4.138ZM7.99876 4.96637C6.32362 4.96637 4.96548 6.32489 4.96548 8.00047C4.96548 9.67606 6.32362 11.034 7.99876 11.034C9.67389 11.034 11.0317 9.67606 11.0317 8.00047C11.0317 6.32489 9.67377 4.96637 7.99863 4.96637H7.99876ZM7.99876 6.03108C9.08606 6.03108 9.96762 6.91275 9.96762 8.00047C9.96762 9.08807 9.08606 9.96987 7.99876 9.96987C6.91133 9.96987 6.02989 9.08807 6.02989 8.00047C6.02989 6.91275 6.91133 6.03108 7.99876 6.03108Z" fill="white"/>
<defs>
<radialGradient id="paint0_radial_18_32" cx="0" cy="0" r="1" gradientUnits="userSpaceOnUse" gradientTransform="translate(4.25002 17.2323) rotate(-90) scale(15.8572 14.7484)">
<stop stop-color="#FFDD55"/>
<stop offset="0.1" stop-color="#FFDD55"/>
<stop offset="0.5" stop-color="#FF543E"/>
<stop offset="1" stop-color="#C837AB"/>
</radialGradient>
<radialGradient id="paint1_radial_18_32" cx="0" cy="0" r="1" gradientUnits="userSpaceOnUse" gradientTransform="translate(-2.68008 1.15261) rotate(78.6806) scale(7.08823 29.218)">
<stop stop-color="#3771C8"/>
<stop offset="0.128" stop-color="#3771C8"/>
<stop offset="1" stop-color="#6600FF" stop-opacity="0"/>
</radialGradient>
</defs>
</svg>
